M48
; DRILL file {KiCad 8.0.8} date 2025-01-26T19:30:12-0600
; FORMAT={-:-/ absolute / inch / decimal}
; #@! TF.CreationDate,2025-01-26T19:30:12-06:00
; #@! TF.GenerationSoftware,Kicad,Pcbnew,8.0.8
; #@! TF.FileFunction,Plated,1,2,PTH
FMAT,2
INCH
; #@! TA.AperFunction,Plated,PTH,ViaDrill
T1C0.0118
; #@! TA.AperFunction,Plated,PTH,ComponentDrill
T2C0.0394
; #@! TA.AperFunction,Plated,PTH,ComponentDrill
T3C0.0433
%
G90
G05
T1
X17.2146Y-9.5079
X17.2539Y-10.1181
X17.3031Y-10.1969
X17.372Y-9.8031
X17.4016Y-10.2264
X17.4311Y-10.0098
X17.4705Y-9.626
X17.5394Y-9.3602
X17.6083Y-8.9075
X17.6181Y-10.1772
X17.6772Y-9.4488
X17.7362Y-9.872
X17.8543Y-9.1831
X17.8839Y-9.3602
X18.0807Y-9.7047
X18.1496Y-9.0354
X18.1791Y-9.4094
X18.2776Y-9.9311
X18.2776Y-10.5512
X18.3268Y-9.6752
X18.5236Y-9.1437
X18.5728Y-9.9508
X18.7303Y-10.2657
X18.878Y-9.5669
X18.9272Y-9.2421
X19.1831Y-8.5728
X19.2028Y-9.5079
T2
X17.7937Y-10.5512
X17.8937Y-10.5512
X17.9937Y-10.5512
X18.0937Y-10.5512
X18.1937Y-10.5512
T3
X17.1796Y-8.7016
X17.2781Y-8.5047
X17.3765Y-8.7016
X17.8497Y-8.7
X17.9481Y-8.5031
X18.0466Y-8.7
X18.5647Y-8.6953
X18.6631Y-8.4984
X18.7615Y-8.6953
M30
